# xmcd CD database file
#
# Track frame offsets:
#	150
#	47809
#	87887
#	111439
#	137244
#	154713
#	177627
#	197451
#	251315
#	266462
#	283971
#
# Disc length: 4184 seconds
#
# Revision: 0
# Processed by: cddbd v1.5.2PL0 Copyright (c) Steve Scherf et al.
# Submitted via: CDex 1.70beta2
#
DISCID=9e10560b
DTITLE=Mars Lasar - Nocturnal Diaries
DYEAR=2003
DGENRE=New Age
TTITLE0=Moonlight Canyon
TTITLE1=Deep Blue
TTITLE2=Pioneers Revisited
TTITLE3=Ancestors
TTITLE4=Mammoth Peak
TTITLE5=Secret Lagoon
TTITLE6=Charlotte's Web
TTITLE7=Crystal Meadows
TTITLE8=Ceremony
TTITLE9=Land of the Giants
TTITLE10=Enchanted Wilderness
EXTD=YEAR: 2003
EXTT0=
EXTT1=
EXTT2=
EXTT3=
EXTT4=
EXTT5=
EXTT6=
EXTT7=
EXTT8=
EXTT9=
EXTT10=
PLAYORDER=
